<svg width="162" height="36" viewBox="0 0 162 36" fill="none" xmlns="http://www.w3.org/2000/svg">
<path d="M9.72288 29.6806C7.79264 29.6806 6.23104 28.1165 6.23104 26.1888V9.72544C6.23104 7.79776 7.7952 6.2336 9.72288 6.2336H12.8486V0H10.8928C4.8768 0 0 4.8768 0 10.8928V25.0189C0 31.0349 4.8768 35.9117 10.8928 35.9117H12.8486V29.6806H9.72288Z" fill="white"/>
<path d="M38.7519 5.34375C38.5054 5.77136 38.3757 6.25627 38.3759 6.74983C38.3761 7.24339 38.5061 7.72822 38.7528 8.15566C38.9996 8.5831 39.3545 8.9381 39.7818 9.18503C40.2092 9.43197 40.6939 9.56215 41.1875 9.5625C42.74 9.5625 44 8.3025 44 6.75C44 3.9555 41.7314 1.6875 38.9375 1.6875C38.1823 1.68698 37.4366 1.85574 36.7552 2.18135C36.0738 2.50696 35.474 2.98115 35 3.56906C34.526 2.98115 33.9262 2.50696 33.2448 2.18135C32.5634 1.85574 31.8177 1.68698 31.0625 1.6875C28.2686 1.6875 26 3.95606 26 6.75C26 8.3025 27.26 9.5625 28.8125 9.5625C29.3061 9.56215 29.7908 9.43197 30.2182 9.18503C30.6455 8.9381 31.0004 8.5831 31.2472 8.15566C31.4939 7.72822 31.6239 7.24339 31.6241 6.74983C31.6243 6.25627 31.4946 5.77136 31.2481 5.34375C31.1734 5.21463 31.0504 5.12049 30.9063 5.08204C30.7621 5.04359 30.6086 5.06398 30.4795 5.13872C30.3503 5.21346 30.2562 5.33643 30.2178 5.48058C30.1793 5.62474 30.1997 5.77826 30.2744 5.90738C30.4221 6.16395 30.4997 6.45484 30.4995 6.75087C30.4992 7.0469 30.4211 7.33766 30.273 7.59398C30.1249 7.8503 29.912 8.06316 29.6557 8.21121C29.3993 8.35927 29.1085 8.43731 28.8125 8.4375C27.881 8.4375 27.125 7.68094 27.125 6.75C27.125 4.5765 28.8896 2.8125 31.0625 2.8125C31.7659 2.81251 32.4565 3.0009 33.0625 3.3581C33.6685 3.7153 34.1677 4.22826 34.5084 4.84369C34.5571 4.93147 34.6284 5.00463 34.7149 5.05556C34.8013 5.1065 34.8999 5.13336 35.0003 5.13336C35.1007 5.13336 35.1992 5.1065 35.2857 5.05556C35.3722 5.00463 35.4435 4.93147 35.4922 4.84369C35.8328 4.22835 36.332 3.71543 36.9378 3.35824C37.5437 3.00105 38.2342 2.81261 38.9375 2.8125C41.111 2.8125 42.875 4.57706 42.875 6.75C42.8753 7.00905 42.8159 7.26468 42.7015 7.49711C42.5872 7.72954 42.4208 7.93252 42.2154 8.09035C42.01 8.24817 41.771 8.35661 41.517 8.40725C41.2629 8.45789 41.0006 8.44939 40.7504 8.38239C40.5001 8.3154 40.2687 8.19171 40.0739 8.02091C39.8792 7.85011 39.7263 7.63678 39.6272 7.39743C39.5282 7.15808 39.4855 6.89914 39.5025 6.64065C39.5196 6.38217 39.5959 6.13107 39.7256 5.90681C39.7954 5.77807 39.8123 5.62716 39.7726 5.48616C39.7329 5.34516 39.6398 5.2252 39.5131 5.15179C39.3863 5.07838 39.2359 5.0573 39.0939 5.09305C38.9518 5.12879 38.8293 5.21853 38.7524 5.34319L38.7519 5.34375Z" fill="white"/>
<path d="M26.7869 5.99907C26.18 5.75134 25.5306 5.62429 24.875 5.625C22.0811 5.625 19.8125 7.89357 19.8125 10.6875C19.8125 13.4814 22.0811 15.75 24.875 15.75C26.4275 15.75 27.6875 14.49 27.6875 12.9375C27.6871 12.4482 27.5592 11.9675 27.3163 11.5427C27.0734 11.118 26.7239 10.764 26.3024 10.5155C25.8809 10.2671 25.4019 10.1329 24.9126 10.1262C24.4234 10.1194 23.9408 10.2404 23.5126 10.4771C23.3829 10.5499 23.2874 10.671 23.2468 10.8141C23.2062 10.9571 23.2239 11.1105 23.296 11.2405C23.3681 11.3705 23.4888 11.4667 23.6316 11.508C23.7745 11.5493 23.9279 11.5324 24.0583 11.4609C24.3152 11.319 24.6047 11.2466 24.8982 11.2507C25.1916 11.2548 25.479 11.3354 25.7318 11.4845C25.9847 11.6335 26.1943 11.846 26.3399 12.1008C26.4856 12.3556 26.5623 12.644 26.5625 12.9375C26.5625 13.8684 25.8065 14.625 24.875 14.625C22.7021 14.625 20.9375 12.8604 20.9375 10.6875C20.9379 10.0419 21.0968 9.4063 21.4005 8.83658C21.7042 8.26686 22.1432 7.78049 22.6789 7.42026C23.2146 7.06003 23.8307 6.83697 24.4729 6.7707C25.1151 6.70444 25.7637 6.797 26.3617 7.04025C26.6486 7.15782 27.0744 6.11607 26.7869 5.9985V5.99907ZM43.6389 7.04082C44.2368 6.79756 44.8854 6.70497 45.5275 6.7712C46.1696 6.83743 46.7856 7.06045 47.3213 7.42063C47.857 7.78081 48.2959 8.26713 48.5996 8.83678C48.9032 9.40644 49.0622 10.042 49.0625 10.6875C49.0625 12.861 47.2979 14.625 45.125 14.625C44.1935 14.625 43.4375 13.869 43.4375 12.9375C43.4378 12.6441 43.5145 12.3559 43.6601 12.1013C43.8058 11.8466 44.0152 11.6343 44.2679 11.4852C44.5206 11.3362 44.8077 11.2556 45.101 11.2513C45.3944 11.247 45.6837 11.3193 45.9406 11.4609C46.0711 11.5334 46.225 11.551 46.3684 11.51C46.4395 11.4897 46.5058 11.4555 46.5637 11.4096C46.6215 11.3636 46.6698 11.3067 46.7056 11.2421C46.7415 11.1775 46.7643 11.1065 46.7727 11.0331C46.7811 10.9597 46.775 10.8853 46.7547 10.8143C46.7343 10.7433 46.7002 10.6769 46.6543 10.6191C46.6083 10.5612 46.5514 10.513 46.4868 10.4771C46.0586 10.2405 45.5761 10.1197 45.087 10.1265C44.5978 10.1333 44.1189 10.2675 43.6974 10.5159C43.276 10.7643 42.9266 11.1183 42.6837 11.543C42.4409 11.9677 42.3129 12.4483 42.3125 12.9375C42.3125 14.49 43.5725 15.75 45.125 15.75C47.9189 15.75 50.1875 13.482 50.1875 10.6875C50.1875 7.893 47.9189 5.625 45.125 5.625C44.4489 5.625 43.8031 5.75832 43.2131 5.99907C42.9262 6.11719 43.3514 7.15782 43.6389 7.04082ZM28.8125 30.9375C27.881 30.9375 27.125 31.6941 27.125 32.625C27.125 33.5565 27.881 34.3125 28.8125 34.3125C29.744 34.3125 30.5 33.5565 30.5 32.625C30.5 31.6941 29.744 30.9375 28.8125 30.9375ZM28.8125 32.0625C28.9618 32.0625 29.1051 32.1218 29.2106 32.2274C29.3162 32.333 29.3756 32.4762 29.3756 32.6256C29.3756 32.7749 29.3162 32.9181 29.2106 33.0237C29.1051 33.1293 28.9618 33.1886 28.8125 33.1886C28.6632 33.1886 28.5199 33.1293 28.4144 33.0237C28.3088 32.9181 28.2494 32.7749 28.2494 32.6256C28.2494 32.4762 28.3088 32.333 28.4144 32.2274C28.5199 32.1218 28.6632 32.0625 28.8125 32.0625ZM24.875 27C23.9435 27 23.1875 27.7566 23.1875 28.6875C23.1875 29.619 23.9435 30.375 24.875 30.375C25.8065 30.375 26.5625 29.619 26.5625 28.6875C26.5625 27.7566 25.8065 27 24.875 27ZM24.875 28.125C25.0243 28.125 25.1676 28.1843 25.2731 28.2899C25.3787 28.3955 25.4381 28.5387 25.4381 28.6881C25.4381 28.8374 25.3787 28.9806 25.2731 29.0862C25.1676 29.1918 25.0243 29.2511 24.875 29.2511C24.7257 29.2511 24.5824 29.1918 24.4769 29.0862C24.3713 28.9806 24.3119 28.8374 24.3119 28.6881C24.3119 28.5387 24.3713 28.3955 24.4769 28.2899C24.5824 28.1843 24.7257 28.125 24.875 28.125ZM21.5 23.0625C20.5685 23.0625 19.8125 23.8191 19.8125 24.75C19.8125 25.6815 20.5685 26.4375 21.5 26.4375C22.4315 26.4375 23.1875 25.6815 23.1875 24.75C23.1875 23.8191 22.4315 23.0625 21.5 23.0625ZM21.5 24.1875C21.6493 24.1875 21.7926 24.2468 21.8981 24.3524C22.0037 24.458 22.0631 24.6012 22.0631 24.7506C22.0631 24.8999 22.0037 25.0431 21.8981 25.1487C21.7926 25.2543 21.6493 25.3136 21.5 25.3136C21.3507 25.3136 21.2074 25.2543 21.1019 25.1487C20.9963 25.0431 20.9369 24.8999 20.9369 24.7506C20.9369 24.6012 20.9963 24.458 21.1019 24.3524C21.2074 24.2468 21.3507 24.1875 21.5 24.1875ZM41.1875 30.9375C40.256 30.9375 39.5 31.6941 39.5 32.625C39.5 33.5565 40.256 34.3125 41.1875 34.3125C42.119 34.3125 42.875 33.5565 42.875 32.625C42.875 31.6941 42.119 30.9375 41.1875 30.9375ZM41.1875 32.0625C41.3368 32.0625 41.4801 32.1218 41.5856 32.2274C41.6912 32.333 41.7506 32.4762 41.7506 32.6256C41.7506 32.7749 41.6912 32.9181 41.5856 33.0237C41.4801 33.1293 41.3368 33.1886 41.1875 33.1886C41.0382 33.1886 40.8949 33.1293 40.7894 33.0237C40.6838 32.9181 40.6244 32.7749 40.6244 32.6256C40.6244 32.4762 40.6838 32.333 40.7894 32.2274C40.8949 32.1218 41.0382 32.0625 41.1875 32.0625ZM45.125 27C44.1941 27 43.4375 27.7566 43.4375 28.6875C43.4375 29.619 44.1941 30.375 45.125 30.375C46.0559 30.375 46.8125 29.619 46.8125 28.6875C46.8125 27.7566 46.0565 27 45.125 27ZM45.125 28.125C45.2743 28.125 45.4176 28.1843 45.5231 28.2899C45.6287 28.3955 45.6881 28.5387 45.6881 28.6881C45.6881 28.8374 45.6287 28.9806 45.5231 29.0862C45.4176 29.1918 45.2743 29.2511 45.125 29.2511C44.9757 29.2511 44.8324 29.1918 44.7269 29.0862C44.6213 28.9806 44.5619 28.8374 44.5619 28.6881C44.5619 28.5387 44.6213 28.3955 44.7269 28.2899C44.8324 28.1843 44.9757 28.125 45.125 28.125ZM48.5 23.0625C47.5691 23.0625 46.8125 23.8191 46.8125 24.75C46.8125 25.6815 47.5691 26.4375 48.5 26.4375C49.4309 26.4375 50.1875 25.6815 50.1875 24.75C50.1875 23.8191 49.4315 23.0625 48.5 23.0625ZM48.5 24.1875C48.6493 24.1875 48.7926 24.2468 48.8981 24.3524C49.0037 24.458 49.0631 24.6012 49.0631 24.7506C49.0631 24.8999 49.0037 25.0431 48.8981 25.1487C48.7926 25.2543 48.6493 25.3136 48.5 25.3136C48.3507 25.3136 48.2074 25.2543 48.1019 25.1487C47.9963 25.0431 47.9369 24.8999 47.9369 24.7506C47.9369 24.6012 47.9963 24.458 48.1019 24.3524C48.2074 24.2468 48.3507 24.1875 48.5 24.1875ZM35 30.9375C34.0685 30.9375 33.3125 31.6941 33.3125 32.625C33.3125 33.5565 34.0685 34.3125 35 34.3125C35.9315 34.3125 36.6875 33.5565 36.6875 32.625C36.6875 31.6941 35.9315 30.9375 35 30.9375ZM35 32.0625C35.1493 32.0625 35.2926 32.1218 35.3981 32.2274C35.5037 32.333 35.5631 32.4762 35.5631 32.6256C35.5631 32.7749 35.5037 32.9181 35.3981 33.0237C35.2926 33.1293 35.1493 33.1886 35 33.1886C34.8507 33.1886 34.7074 33.1293 34.6019 33.0237C34.4963 32.9181 34.4369 32.7749 34.4369 32.6256C34.4369 32.4762 34.4963 32.333 34.6019 32.2274C34.7074 32.1218 34.8507 32.0625 35 32.0625ZM40.0625 14.625C40.0625 13.6935 39.3065 12.9375 38.375 12.9375H31.625C30.6941 12.9375 29.9375 13.6935 29.9375 14.625V21.375C29.9375 22.3071 30.6941 23.0625 31.625 23.0625H38.375C39.3065 23.0625 40.0625 22.3071 40.0625 21.375V14.625ZM38.9375 14.625V21.375C38.9375 21.6861 38.6855 21.9375 38.375 21.9375H31.625C31.4758 21.9375 31.3327 21.8782 31.2273 21.7728C31.1218 21.6673 31.0625 21.5242 31.0625 21.375V14.625C31.0625 14.4758 31.1218 14.3327 31.2273 14.2273C31.3327 14.1218 31.4758 14.0625 31.625 14.0625H38.375C38.5242 14.0625 38.6673 14.1218 38.7727 14.2273C38.8782 14.3327 38.9375 14.4758 38.9375 14.625Z" fill="white"/>
<path d="M37.25 16.3125C37.25 16.1633 37.1907 16.0202 37.0852 15.9148C36.9798 15.8093 36.8367 15.75 36.6875 15.75H33.3125C33.1633 15.75 33.0202 15.8093 32.9148 15.9148C32.8093 16.0202 32.75 16.1633 32.75 16.3125V19.6875C32.75 19.8367 32.8093 19.9798 32.9148 20.0852C33.0202 20.1907 33.1633 20.25 33.3125 20.25H36.6875C36.8367 20.25 36.9798 20.1907 37.0852 20.0852C37.1907 19.9798 37.25 19.8367 37.25 19.6875V16.3125ZM36.125 16.875V19.125H33.875V16.875H36.125ZM20.9459 12.7507C20.1371 13.1329 19.4825 13.7789 19.0897 14.5826C18.697 15.3863 18.5895 16.2998 18.785 17.1727C18.9805 18.0456 19.4673 18.826 20.1653 19.3854C20.8634 19.9448 21.731 20.2499 22.6256 20.2506H26C26.076 20.254 26.1519 20.2419 26.2231 20.2152C26.2943 20.1885 26.3593 20.1476 26.4143 20.095C26.4693 20.0424 26.513 19.9793 26.5429 19.9093C26.5728 19.8394 26.5882 19.7641 26.5882 19.6881C26.5882 19.612 26.5728 19.5367 26.5429 19.4668C26.513 19.3968 26.4693 19.3337 26.4143 19.2811C26.3593 19.2285 26.2943 19.1877 26.2231 19.1609C26.1519 19.1342 26.076 19.1222 26 19.1256H22.6261C21.88 19.1256 21.1644 18.8292 20.6368 18.3017C20.1091 17.7741 19.8126 17.0586 19.8125 16.3125C19.8128 15.7788 19.9648 15.2562 20.2507 14.8056C20.5366 14.3549 20.9447 13.9948 21.4274 13.7672C21.7076 13.635 21.2266 12.6174 20.9465 12.7502L20.9459 12.7507ZM44.0011 20.25H47.375C49.5485 20.25 51.3125 18.486 51.3125 16.3125C51.3124 15.5658 51.1 14.8345 50.7002 14.2039C50.3003 13.5733 49.7294 13.0693 49.0541 12.7507C48.7739 12.618 48.293 13.6356 48.5737 13.7677C49.0561 13.9955 49.4639 14.3556 49.7496 14.8061C50.0353 15.2566 50.1872 15.779 50.1875 16.3125C50.1875 17.865 48.9275 19.125 47.3744 19.125H44.0006C43.9246 19.1216 43.8487 19.1336 43.7775 19.1604C43.7063 19.1871 43.6412 19.228 43.5863 19.2806C43.5313 19.3331 43.4875 19.3963 43.4576 19.4662C43.4277 19.5362 43.4123 19.6114 43.4123 19.6875C43.4123 19.7636 43.4277 19.8388 43.4576 19.9088C43.4875 19.9787 43.5313 20.0419 43.5863 20.0944C43.6412 20.147 43.7063 20.1879 43.7775 20.2146C43.8487 20.2414 43.9251 20.2534 44.0011 20.25ZM34.4375 22.5V24.75C34.4375 24.8992 34.4968 25.0423 34.6023 25.1477C34.7077 25.2532 34.8508 25.3125 35 25.3125C35.1492 25.3125 35.2923 25.2532 35.3977 25.1477C35.5032 25.0423 35.5625 24.8992 35.5625 24.75V22.5H34.4375ZM34.4375 27V31.5H35.5625V27C35.5625 26.8508 35.5032 26.7077 35.3977 26.6023C35.2923 26.4968 35.1492 26.4375 35 26.4375C34.8508 26.4375 34.7077 26.4968 34.6023 26.6023C34.4968 26.7077 34.4375 26.8508 34.4375 27ZM37.25 27.5625H40.625V31.5H41.75V27C41.75 26.8508 41.6907 26.7077 41.5852 26.6023C41.4798 26.4968 41.3367 26.4375 41.1875 26.4375H37.25C37.1008 26.4375 36.9577 26.4968 36.8523 26.6023C36.7468 26.7077 36.6875 26.8508 36.6875 27C36.6875 27.1492 36.7468 27.2923 36.8523 27.3977C36.9577 27.5032 37.1008 27.5625 37.25 27.5625ZM44 22.5H47.9375V23.625H49.0625V21.9375C49.0625 21.7883 49.0032 21.6452 48.8977 21.5398C48.7923 21.4343 48.6492 21.375 48.5 21.375H44C43.8508 21.375 43.7077 21.4343 43.6023 21.5398C43.4968 21.6452 43.4375 21.7883 43.4375 21.9375C43.4375 22.0867 43.4968 22.2298 43.6023 22.3352C43.7077 22.4407 43.8508 22.5 44 22.5ZM26 21.375H21.5C21.3508 21.375 21.2077 21.4343 21.1023 21.5398C20.9968 21.6452 20.9375 21.7883 20.9375 21.9375V23.625H22.0625V22.5H26C26.1492 22.5 26.2923 22.4407 26.3977 22.3352C26.5032 22.2298 26.5625 22.0867 26.5625 21.9375C26.5625 21.7883 26.5032 21.6452 26.3977 21.5398C26.2923 21.4343 26.1492 21.375 26 21.375ZM41.1875 22.2188V24.75C41.1875 24.8992 41.2468 25.0423 41.3523 25.1477C41.4577 25.2532 41.6008 25.3125 41.75 25.3125H44.5631V27.5625H45.6881V24.75C45.6881 24.6761 45.6735 24.6029 45.6452 24.5346C45.6169 24.4663 45.5754 24.4043 45.5231 24.3521C45.4708 24.2998 45.4087 24.2584 45.3404 24.2302C45.2721 24.2019 45.1989 24.1874 45.125 24.1875H42.3125V22.2188C42.3125 22.0696 42.2532 21.9265 42.1477 21.821C42.0423 21.7155 41.8992 21.6562 41.75 21.6562C41.6008 21.6562 41.4577 21.7155 41.3523 21.821C41.2468 21.9265 41.1875 22.0696 41.1875 22.2188ZM27.6875 22.2188V24.1875H24.875C24.7258 24.1875 24.5827 24.2468 24.4773 24.3523C24.3718 24.4577 24.3125 24.6008 24.3125 24.75V27.5625H25.4375V25.3125H28.25C28.3992 25.3125 28.5423 25.2532 28.6477 25.1477C28.7532 25.0423 28.8125 24.8992 28.8125 24.75V22.2188C28.8125 22.0696 28.7532 21.9265 28.6477 21.821C28.5423 21.7155 28.3992 21.6562 28.25 21.6562C28.1008 21.6562 27.9577 21.7155 27.8523 21.821C27.7468 21.9265 27.6875 22.0696 27.6875 22.2188ZM32.75 26.4375H28.8125C28.6633 26.4375 28.5202 26.4968 28.4148 26.6023C28.3093 26.7077 28.25 26.8508 28.25 27V31.5H29.375V27.5625H32.75C32.8992 27.5625 33.0423 27.5032 33.1477 27.3977C33.2532 27.2923 33.3125 27.1492 33.3125 27C33.3125 26.8508 33.2532 26.7077 33.1477 26.6023C33.0423 26.4968 32.8992 26.4375 32.75 26.4375ZM30.5 17.4375H28.25C28.1008 17.4375 27.9577 17.4968 27.8523 17.6023C27.7468 17.7077 27.6875 17.8508 27.6875 18C27.6875 18.1492 27.7468 18.2923 27.8523 18.3977C27.9577 18.5032 28.1008 18.5625 28.25 18.5625H30.5V17.4375ZM34.4375 11.25V13.5H35.5625V11.25C35.5625 11.1008 35.5032 10.9577 35.3977 10.8523C35.2923 10.7468 35.1492 10.6875 35 10.6875C34.8508 10.6875 34.7077 10.7468 34.6023 10.8523C34.4968 10.9577 34.4375 11.1008 34.4375 11.25ZM34.4375 4.5V9C34.4375 9.14918 34.4968 9.29226 34.6023 9.39775C34.7077 9.50324 34.8508 9.5625 35 9.5625C35.1492 9.5625 35.2923 9.50324 35.3977 9.39775C35.5032 9.29226 35.5625 9.14918 35.5625 9V4.5C35.5625 4.35082 35.5032 4.20774 35.3977 4.10225C35.2923 3.99676 35.1492 3.9375 35 3.9375C34.8508 3.9375 34.7077 3.99676 34.6023 4.10225C34.4968 4.20774 34.4375 4.35082 34.4375 4.5Z" fill="white"/>
<path d="M41.75 17.4375H39.5V18.5625H41.75C41.8992 18.5625 42.0423 18.5032 42.1477 18.3977C42.2532 18.2923 42.3125 18.1492 42.3125 18C42.3125 17.8508 42.2532 17.7077 42.1477 17.6023C42.0423 17.4968 41.8992 17.4375 41.75 17.4375ZM32.1875 22.5V24.75C32.1875 24.8992 32.2468 25.0423 32.3523 25.1477C32.4577 25.2532 32.6008 25.3125 32.75 25.3125C32.8992 25.3125 33.0423 25.2532 33.1477 25.1477C33.2532 25.0423 33.3125 24.8992 33.3125 24.75V22.5H32.1875ZM30.5 15.1875H28.25C28.1008 15.1875 27.9577 15.2468 27.8523 15.3523C27.7468 15.4577 27.6875 15.6008 27.6875 15.75C27.6875 15.8992 27.7468 16.0423 27.8523 16.1477C27.9577 16.2532 28.1008 16.3125 28.25 16.3125H30.5V15.1875ZM32.1875 11.25V13.5H33.3125V11.25C33.3125 11.1008 33.2532 10.9577 33.1477 10.8523C33.0423 10.7468 32.8992 10.6875 32.75 10.6875C32.6008 10.6875 32.4577 10.7468 32.3523 10.8523C32.2468 10.9577 32.1875 11.1008 32.1875 11.25ZM41.75 15.1875H39.5V16.3125H41.75C41.8992 16.3125 42.0423 16.2532 42.1477 16.1477C42.2532 16.0423 42.3125 15.8992 42.3125 15.75C42.3125 15.6008 42.2532 15.4577 42.1477 15.3523C42.0423 15.2468 41.8992 15.1875 41.75 15.1875ZM36.6875 22.5V24.75C36.6875 24.8992 36.7468 25.0423 36.8523 25.1477C36.9577 25.2532 37.1008 25.3125 37.25 25.3125C37.3992 25.3125 37.5423 25.2532 37.6477 25.1477C37.7532 25.0423 37.8125 24.8992 37.8125 24.75V22.5H36.6875ZM30.5 19.6875H28.25C28.1008 19.6875 27.9577 19.7468 27.8523 19.8523C27.7468 19.9577 27.6875 20.1008 27.6875 20.25C27.6875 20.3992 27.7468 20.5423 27.8523 20.6477C27.9577 20.7532 28.1008 20.8125 28.25 20.8125H30.5V19.6875ZM36.6875 11.25V13.5H37.8125V11.25C37.8125 11.1008 37.7532 10.9577 37.6477 10.8523C37.5423 10.7468 37.3992 10.6875 37.25 10.6875C37.1008 10.6875 36.9577 10.7468 36.8523 10.8523C36.7468 10.9577 36.6875 11.1008 36.6875 11.25ZM41.75 19.6875H39.5V20.8125H41.75C41.8992 20.8125 42.0423 20.7532 42.1477 20.6477C42.2532 20.5423 42.3125 20.3992 42.3125 20.25C42.3125 20.1008 42.2532 19.9577 42.1477 19.8523C42.0423 19.7468 41.8992 19.6875 41.75 19.6875Z" fill="white"/>
<path d="M24.875 33.1881C25.1857 33.1881 25.4375 32.9363 25.4375 32.6256C25.4375 32.315 25.1857 32.0631 24.875 32.0631C24.5643 32.0631 24.3125 32.315 24.3125 32.6256C24.3125 32.9363 24.5643 33.1881 24.875 33.1881Z" fill="white"/>
<path d="M45.125 33.1881C45.4357 33.1881 45.6875 32.9363 45.6875 32.6256C45.6875 32.315 45.4357 32.0631 45.125 32.0631C44.8143 32.0631 44.5625 32.315 44.5625 32.6256C44.5625 32.9363 44.8143 33.1881 45.125 33.1881Z" fill="white"/>
<path d="M24.875 4.5C25.1857 4.5 25.4375 4.24816 25.4375 3.9375C25.4375 3.62684 25.1857 3.375 24.875 3.375C24.5643 3.375 24.3125 3.62684 24.3125 3.9375C24.3125 4.24816 24.5643 4.5 24.875 4.5Z" fill="white"/>
<path d="M45.125 4.5C45.4357 4.5 45.6875 4.24816 45.6875 3.9375C45.6875 3.62684 45.4357 3.375 45.125 3.375C44.8143 3.375 44.5625 3.62684 44.5625 3.9375C44.5625 4.24816 44.8143 4.5 45.125 4.5Z" fill="white"/>
<path d="M58.8314 32V20.8H60.4314V30.608H66.4954V32H58.8314ZM69.7874 25.632H75.5474V26.992H69.7874V25.632ZM69.9314 30.608H76.4594V32H68.3314V20.8H76.2354V22.192H69.9314V30.608ZM77.3541 32L82.4261 20.8H84.0101L89.0981 32H87.4181L82.8901 21.696H83.5301L79.0021 32H77.3541ZM79.5141 29.2L79.9461 27.92H86.2501L86.7141 29.2H79.5141ZM90.7689 32V20.8H95.1369C96.1182 20.8 96.9555 20.9547 97.6489 21.264C98.3422 21.5733 98.8755 22.0213 99.2489 22.608C99.6222 23.1947 99.8089 23.8933 99.8089 24.704C99.8089 25.5147 99.6222 26.2133 99.2489 26.8C98.8755 27.376 98.3422 27.8187 97.6489 28.128C96.9555 28.4373 96.1182 28.592 95.1369 28.592H91.6489L92.3689 27.856V32H90.7689ZM98.2569 32L95.4089 27.936H97.1209L100.001 32H98.2569ZM92.3689 28.016L91.6489 27.232H95.0889C96.1129 27.232 96.8862 27.0133 97.4089 26.576C97.9422 26.128 98.2089 25.504 98.2089 24.704C98.2089 23.904 97.9422 23.2853 97.4089 22.848C96.8862 22.4107 96.1129 22.192 95.0889 22.192H91.6489L92.3689 21.392V28.016ZM102.394 32V20.8H103.706L111.114 30H110.426V20.8H112.026V32H110.714L103.306 22.8H103.994V32H102.394ZM115.378 32V20.8H116.978V32H115.378ZM120.331 32V20.8H121.643L129.051 30H128.363V20.8H129.963V32H128.651L121.243 22.8H121.931V32H120.331ZM138.372 32.128C137.508 32.128 136.713 31.9893 135.988 31.712C135.262 31.424 134.633 31.024 134.1 30.512C133.566 29.9893 133.15 29.3813 132.852 28.688C132.553 27.9947 132.404 27.232 132.404 26.4C132.404 25.568 132.553 24.8053 132.852 24.112C133.15 23.4187 133.566 22.816 134.1 22.304C134.644 21.7813 135.278 21.3813 136.004 21.104C136.729 20.816 137.529 20.672 138.404 20.672C139.289 20.672 140.1 20.816 140.836 21.104C141.572 21.392 142.196 21.824 142.708 22.4L141.716 23.392C141.257 22.944 140.756 22.6187 140.212 22.416C139.678 22.2027 139.097 22.096 138.468 22.096C137.828 22.096 137.23 22.2027 136.676 22.416C136.132 22.6293 135.657 22.928 135.252 23.312C134.857 23.696 134.548 24.1547 134.324 24.688C134.11 25.2107 134.004 25.7813 134.004 26.4C134.004 27.008 134.11 27.5787 134.324 28.112C134.548 28.6347 134.857 29.0933 135.252 29.488C135.657 29.872 136.132 30.1707 136.676 30.384C137.22 30.5973 137.812 30.704 138.452 30.704C139.049 30.704 139.62 30.6133 140.164 30.432C140.718 30.24 141.23 29.9253 141.7 29.488L142.612 30.704C142.057 31.1733 141.406 31.5307 140.66 31.776C139.924 32.0107 139.161 32.128 138.372 32.128ZM141.076 30.496V26.336H142.612V30.704L141.076 30.496Z" fill="white"/>
<path d="M58.2714 16V4.8H60.8794L65.5194 12.416H64.1434L68.6554 4.8H71.2634L71.2954 16H68.3834L68.3514 9.232H68.8474L65.4714 14.896H64.0634L60.5914 9.232H61.1994V16H58.2714ZM72.993 16L77.937 4.8H81.057L86.017 16H82.721L78.849 6.352H80.097L76.225 16H72.993ZM75.697 13.824L76.513 11.488H81.985L82.801 13.824H75.697ZM93.1429 16.224C92.2575 16.224 91.4362 16.0853 90.6789 15.808C89.9322 15.52 89.2815 15.1147 88.7269 14.592C88.1829 14.0693 87.7562 13.456 87.4469 12.752C87.1375 12.0373 86.9829 11.2533 86.9829 10.4C86.9829 9.54667 87.1375 8.768 87.4469 8.064C87.7562 7.34933 88.1829 6.73067 88.7269 6.208C89.2815 5.68533 89.9322 5.28533 90.6789 5.008C91.4362 4.72 92.2575 4.576 93.1429 4.576C94.1775 4.576 95.1002 4.75733 95.9109 5.12C96.7322 5.48267 97.4149 6.00533 97.9589 6.688L95.9429 8.512C95.5802 8.08533 95.1802 7.76 94.7429 7.536C94.3162 7.312 93.8362 7.2 93.3029 7.2C92.8442 7.2 92.4229 7.27467 92.0389 7.424C91.6549 7.57333 91.3242 7.792 91.0469 8.08C90.7802 8.35733 90.5669 8.69333 90.4069 9.088C90.2575 9.48267 90.1829 9.92 90.1829 10.4C90.1829 10.88 90.2575 11.3173 90.4069 11.712C90.5669 12.1067 90.7802 12.448 91.0469 12.736C91.3242 13.0133 91.6549 13.2267 92.0389 13.376C92.4229 13.5253 92.8442 13.6 93.3029 13.6C93.8362 13.6 94.3162 13.488 94.7429 13.264C95.1802 13.04 95.5802 12.7147 95.9429 12.288L97.9589 14.112C97.4149 14.784 96.7322 15.3067 95.9109 15.68C95.1002 16.0427 94.1775 16.224 93.1429 16.224ZM107.659 4.8H110.827V16H107.659V4.8ZM103.339 16H100.171V4.8H103.339V16ZM107.883 11.632H103.115V9.008H107.883V11.632ZM113.862 16V4.8H117.03V16H113.862ZM120.084 16V4.8H122.692L128.868 12.256H127.636V4.8H130.74V16H128.132L121.956 8.544H123.188V16H120.084ZM136.686 9.136H141.886V11.504H136.686V9.136ZM136.91 13.552H142.766V16H133.774V4.8H142.558V7.248H136.91V13.552Z" fill="white"/>
<path d="M152.126 6.2336C154.056 6.2336 155.618 7.79776 155.618 9.72544V26.1888C155.618 28.1165 154.053 29.6806 152.126 29.6806H149V35.9117H150.956C156.972 35.9117 161.849 31.0349 161.849 25.0189V10.8928C161.849 4.8768 156.972 0 150.956 0H149V6.23104H152.126V6.2336Z" fill="white"/>
</svg>
