<svg width="80" height="80" viewBox="0 0 80 80" fill="none" xmlns="http://www.w3.org/2000/svg">
<g clip-path="url(#clip0_11_38)">
<path d="M56.5625 0H23.4375C10.5 0 0 10.5 0 23.4375V56.5625C0 69.5 10.5 80 23.4375 80H56.5625C69.5 80 80 69.5 80 56.5625V23.4375C80 10.5 69.5 0 56.5625 0ZM72.1875 56.5625C72.1875 65.1781 65.1781 72.1875 56.5625 72.1875H23.4375C14.8219 72.1875 7.8125 65.1781 7.8125 56.5625V23.4375C7.8125 14.8219 14.8219 7.8125 23.4375 7.8125H56.5625C65.1781 7.8125 72.1875 14.8219 72.1875 23.4375V56.5625ZM42.6562 60H37.3438C36.05 60 35 58.95 35 57.6562V45H30.6578C28.5703 45 27.5234 42.475 29 40.9984L38.3422 31.6562C39.2578 30.7406 40.7422 30.7406 41.6562 31.6562L50.9984 40.9984C52.475 42.475 51.4297 45 49.3406 45H44.9984V57.6562C44.9984 58.95 43.9484 60 42.6547 60H42.6562ZM25 22.3438V25.1562C25 26.45 26.05 27.5 27.3438 27.5H52.6562C53.95 27.5 55 26.45 55 25.1562V22.3438C55 21.05 53.95 20 52.6562 20H27.3438C26.05 20 25 21.05 25 22.3438Z" fill="url(#paint0_linear_11_38)"/>
</g>
<defs>
<linearGradient id="paint0_linear_11_38" x1="6.86719" y1="6.86719" x2="73.1328" y2="73.1328" gradientUnits="userSpaceOnUse">
<stop stop-color="#2492FF"/>
<stop offset="1" stop-color="#6846C6"/>
</linearGradient>
<clipPath id="clip0_11_38">
<rect width="80" height="80" fill="white"/>
</clipPath>
</defs>
</svg>
