<svg width="24" height="24" viewBox="0 0 24 24" fill="none" xmlns="http://www.w3.org/2000/svg">
<g clip-path="url(#clip0_135_84)">
<mask id="mask0_135_84" style="mask-type:luminance" maskUnits="userSpaceOnUse" x="0" y="0" width="24" height="24">
<path d="M23.4999 23.5V0.500071H0.5V23.5H23.4999Z" fill="white" stroke="white"/>
</mask>
<g mask="url(#mask0_135_84)">
<path d="M20.0859 5.97661H17.9765V13.711C17.9765 14.0977 17.6601 14.4141 17.2734 14.4141M17.2734 14.4141H6.72655C6.33983 14.4141 6.02342 14.0977 6.02342 13.711V1.05475C6.02342 0.668036 6.33983 0.351631 6.72655 0.351631H17.2734C17.6601 0.351631 17.9765 0.668036 17.9765 1.05475V4.57037M17.2734 14.4141H20.0859M20.0859 8.08598H17.9765M20.0859 10.1954H17.9765M20.0859 12.3047H17.9765M20.0859 16.5235H15.164M10.7081 8.12034C10.7081 10.2355 7.42967 8.89865 7.42967 11.7866V13.0078H16.5703V11.7866C16.5703 8.89865 13.2918 10.2355 13.2918 8.12034M15.164 19.4297H21.4921C21.8788 19.4297 22.1953 19.1133 22.1953 18.7266V3.24381C22.1953 2.85709 21.8788 2.54069 21.4921 2.54069H19.3828M15.164 22.2422H19.3828C19.7695 22.2422 20.0859 21.9258 20.0859 21.5391V20.8359M15.164 14.4141V22.9453C15.164 23.332 14.8476 23.6484 14.4609 23.6484H2.50781C2.12109 23.6484 1.80469 23.332 1.80469 22.9453V5.35318C1.80469 4.96646 2.12109 4.65006 2.50781 4.65006H4.52858M14.5894 4.42693C14.5894 2.99687 13.43 1.83756 12 1.83756C10.5699 1.83756 9.41056 2.99687 9.41056 4.42693V5.87658C9.41056 7.30664 10.5699 8.46595 12 8.46595C13.43 8.46595 14.5894 7.30664 14.5894 5.87658V4.42693Z" stroke="white" stroke-miterlimit="10" stroke-linecap="round" stroke-linejoin="round"/>
</g>
</g>
<defs>
<clipPath id="clip0_135_84">
<rect width="24" height="24" fill="white"/>
</clipPath>
</defs>
</svg>
