<svg width="32" height="32" viewBox="0 0 32 32" fill="none" xmlns="http://www.w3.org/2000/svg">
<path d="M28.9696 3.0656H3.03036C2.48096 3.06645 1.95436 3.28529 1.56617 3.67407C1.17799 4.06286 0.95996 4.5898 0.959961 5.1392V26.8608C0.95996 27.4102 1.17799 27.9371 1.56617 28.3259C1.95436 28.7147 2.48096 28.9335 3.03036 28.9344H28.9696C29.519 28.9335 30.0456 28.7147 30.4338 28.3259C30.8219 27.9371 31.04 27.4102 31.04 26.8608V5.1392C31.04 4.5898 30.8219 4.06286 30.4338 3.67407C30.0456 3.28529 29.519 3.06645 28.9696 3.0656ZM30.1088 26.8608C30.1088 27.1632 29.9888 27.4533 29.7753 27.6675C29.5617 27.8816 29.272 28.0024 28.9696 28.0032H3.03036C2.72793 28.0024 2.43818 27.8816 2.22463 27.6675C2.01108 27.4533 1.89116 27.1632 1.89116 26.8608V7.504H30.1088V26.8608ZM30.1088 6.5728H1.89116V5.1392C1.89116 4.83677 2.01108 4.54668 2.22463 4.33253C2.43818 4.11838 2.72793 3.99765 3.03036 3.9968H28.9696C29.272 3.99765 29.5617 4.11838 29.7753 4.33253C29.9888 4.54668 30.1088 4.83677 30.1088 5.1392V6.5728Z" fill="#0C0814"/>
<path d="M11.2159 14.976L16.7103 16.7136C16.7557 16.7288 16.8032 16.7364 16.8511 16.736C16.9495 16.7363 17.0454 16.7055 17.1253 16.6481C17.2052 16.5906 17.2649 16.5094 17.2959 16.416C17.4862 15.808 17.5833 15.1747 17.5839 14.5376C17.5797 12.8882 16.9219 11.3078 15.7547 10.1424C14.5875 8.97699 13.0061 8.32169 11.3567 8.32C11.2957 8.31829 11.2351 8.32861 11.1781 8.35037C11.1212 8.37213 11.0691 8.40489 11.0248 8.4468C10.9805 8.4887 10.9449 8.53892 10.9201 8.59458C10.8952 8.65024 10.8815 8.71026 10.8799 8.7712V14.5312C10.8801 14.6317 10.913 14.7295 10.9736 14.8097C11.0342 14.8899 11.1193 14.9483 11.2159 14.976ZM11.8207 9.2576C12.5714 9.32402 13.2992 9.54979 13.9557 9.91984C14.6122 10.2899 15.1822 10.7957 15.6277 11.4035C16.0732 12.0114 16.3839 12.7072 16.5392 13.4446C16.6944 14.1821 16.6905 14.9442 16.5279 15.68L11.8207 14.192V9.2576Z" fill="#0C0814"/>
<path d="M9.54556 22.0416C10.8698 22.0459 12.1605 21.6259 13.2287 20.8434C14.2969 20.0608 15.0864 18.9567 15.4816 17.6928C15.5004 17.6348 15.5076 17.5737 15.5027 17.5129C15.4977 17.4521 15.4808 17.393 15.4528 17.3388C15.4248 17.2846 15.3864 17.2365 15.3397 17.1973C15.293 17.1581 15.239 17.1286 15.1808 17.1104L10.0096 15.4752V10.0544C10.007 9.93301 9.95705 9.81744 9.87031 9.73249C9.78356 9.64754 9.66697 9.59997 9.54556 9.6C7.894 9.6 6.31009 10.2561 5.14226 11.4239C3.97444 12.5917 3.31836 14.1756 3.31836 15.8272C3.31836 17.4788 3.97444 19.0627 5.14226 20.2305C6.31009 21.3983 7.894 22.0544 9.54556 22.0544V22.0416ZM9.07836 10.5376V15.8144C9.07807 15.9128 9.10884 16.0088 9.1663 16.0886C9.22377 16.1685 9.30498 16.2282 9.39836 16.2592L14.4288 17.8592C14.0662 18.7247 13.4802 19.4784 12.7307 20.043C11.9813 20.6077 11.0952 20.963 10.1633 21.0728C9.23134 21.1825 8.28698 21.0426 7.42685 20.6675C6.56671 20.2924 5.82169 19.6955 5.26804 18.9378C4.71438 18.1802 4.37197 17.289 4.27584 16.3556C4.17972 15.4222 4.33333 14.4799 4.72096 13.6254C5.10859 12.7708 5.71632 12.0346 6.48195 11.492C7.24758 10.9495 8.14362 10.6201 9.07836 10.5376ZM16.7616 26.8992H20.0576V20.8416H16.7616V26.8992ZM17.6928 21.7792H19.1264V25.968H17.6928V21.7792ZM21.0752 26.8992H24.368V19.2512H21.0752V26.8992ZM22.0064 20.1792H23.44V25.968H22.0064V20.1792ZM25.3856 26.8992H28.6816V16.9248H25.3856V26.8992ZM26.3168 17.856H27.7504V25.968H26.3168V17.856ZM20.6752 8.3072H28.2176V9.2384H20.6752V8.3072ZM20.6752 10.928H28.2176V11.8592H20.6752V10.928ZM3.78236 23.3472H11.3248V24.2784H3.78236V23.3472ZM3.78236 25.968H11.3248V26.8992H3.78236V25.968ZM3.78236 4.5952H6.03516V5.5264H3.78236V4.5952ZM20.6752 13.7664H28.2176V14.6976H20.6752V13.7664Z" fill="#0C0814"/>
</svg>
