<svg width="24" height="24" viewBox="0 0 24 24" fill="none" xmlns="http://www.w3.org/2000/svg">
<g clip-path="url(#clip0_135_55)">
<path d="M8.25 5.625H19.5V6.375H8.25V5.625ZM8.25 7.125H21V7.875H8.25V7.125ZM6.75 4.875H3V8.625H6.75V4.875ZM6 7.875H3.75V5.625H6V7.875ZM8.25 10.875H19.5V11.625H8.25V10.875ZM8.25 12.375H21V13.125H8.25V12.375ZM6.75 10.125H3V13.875H6.75V10.125ZM6 13.125H3.75V10.875H6V13.125ZM8.25 16.125H19.5V16.875H8.25V16.125ZM8.25 17.625H21V18.375H8.25V17.625ZM6.75 15.375H3V19.125H6.75V15.375ZM6 18.375H3.75V16.125H6V18.375Z" fill="white"/>
<path d="M2.56425 21.75H21.435C22.1152 21.75 22.7675 21.4799 23.2485 20.999C23.7295 20.5181 23.9998 19.8659 24 19.1857V4.81425C23.9998 4.13423 23.7296 3.48212 23.2487 3.00127C22.7679 2.52042 22.1158 2.2502 21.4357 2.25H2.56425C1.88423 2.2502 1.23212 2.52042 0.751271 3.00127C0.270424 3.48212 0.000198807 4.13423 0 4.81425L0 19.185C-2.90752e-08 19.8652 0.270137 20.5175 0.751006 20.9985C1.23187 21.4795 1.8841 21.7498 2.56425 21.75ZM0.75 4.81425C0.750595 4.33326 0.94193 3.87215 1.28204 3.53204C1.62215 3.19193 2.08326 3.0006 2.56425 3H21.435C21.9161 3.0004 22.3774 3.19164 22.7177 3.53177C23.058 3.8719 23.2494 4.33313 23.25 4.81425V19.185C23.2496 19.6661 23.0584 20.1274 22.7182 20.4677C22.3781 20.808 21.9169 20.9994 21.4357 21H2.56425C2.08326 20.9994 1.62215 20.8081 1.28204 20.468C0.94193 20.1279 0.750595 19.6667 0.75 19.1857V4.81425Z" fill="white"/>
</g>
<defs>
<clipPath id="clip0_135_55">
<rect width="24" height="24" fill="white"/>
</clipPath>
</defs>
</svg>
