<svg width="24" height="24" viewBox="0 0 24 24" fill="none" xmlns="http://www.w3.org/2000/svg">
<mask id="mask0_136_173" style="mask-type:luminance" maskUnits="userSpaceOnUse" x="0" y="0" width="24" height="24">
<path d="M0.5 0.5H23.5V23.5H0.5V0.5Z" fill="white" stroke="white"/>
</mask>
<g mask="url(#mask0_136_173)">
<mask id="mask1_136_173" style="mask-type:luminance" maskUnits="userSpaceOnUse" x="0" y="0" width="24" height="24">
<path d="M23.4999 23.5V0.500071H0.5V23.5H23.4999Z" fill="white" stroke="white"/>
</mask>
<g mask="url(#mask1_136_173)">
<path d="M15.9512 18.8539H8.04877C7.7122 18.8539 7.43939 18.5811 7.43939 18.2445V17.8049C7.43939 17.4683 7.7122 17.1955 8.04877 17.1955H15.9512C16.2878 17.1955 16.5606 17.4683 16.5606 17.8049V18.2445C16.5606 18.5811 16.2878 18.8539 15.9512 18.8539Z" stroke="white" stroke-miterlimit="10" stroke-linecap="round" stroke-linejoin="round"/>
<path d="M15.9512 20.5123H8.04877C7.7122 20.5123 7.43939 20.2395 7.43939 19.9029V19.4633C7.43939 19.1267 7.7122 18.8539 8.04877 18.8539H15.9512C16.2878 18.8539 16.5606 19.1267 16.5606 19.4633V19.9029C16.5606 20.2395 16.2878 20.5123 15.9512 20.5123Z" stroke="white" stroke-miterlimit="10" stroke-linecap="round" stroke-linejoin="round"/>
<path d="M14.7074 22.1707H9.29254C8.95603 22.1707 8.68317 21.8979 8.68317 21.5613V21.1217C8.68317 20.7851 8.95603 20.5123 9.29254 20.5123H14.7074C15.044 20.5123 15.3168 20.7851 15.3168 21.1217V21.5613C15.3168 21.8979 15.044 22.1707 14.7074 22.1707Z" stroke="white" stroke-miterlimit="10" stroke-linecap="round" stroke-linejoin="round"/>
<path d="M11.1708 22.1707V22.974C11.1708 23.3461 11.4724 23.6477 11.8445 23.6477H12.1554C12.5275 23.6477 12.8292 23.3461 12.8292 22.974V22.1707H11.1708Z" stroke="white" stroke-miterlimit="10" stroke-linecap="round" stroke-linejoin="round"/>
<path d="M13.4262 6.38147C13.3939 6.34676 13.3503 6.32458 13.3033 6.31884C13.2562 6.3131 13.2086 6.32418 13.169 6.35011C12.2906 6.9239 11.1289 7.28662 9.98746 7.20464C9.87163 7.19582 9.77179 7.28821 9.77179 7.40517V9.16893C9.77179 10.3025 10.66 11.3379 12.0035 11.3379C13.1995 11.3379 14.1725 10.3649 14.1725 9.16893V7.26276C14.1725 7.15739 14.1771 7.18861 13.4262 6.38147Z" stroke="white" stroke-miterlimit="10" stroke-linecap="round" stroke-linejoin="round"/>
<path d="M15.835 15.7293C15.835 14.9688 16.1683 14.2415 16.7585 13.7617C16.8351 13.6992 16.9105 13.6351 16.9846 13.5696C16.7254 13.3486 16.4955 13.254 16.4955 13.254L13.3952 12.0534C13.3471 12.0347 13.3058 12.002 13.2767 11.9595C13.2475 11.917 13.232 11.8666 13.232 11.8151V10.9552C12.871 11.2048 12.4424 11.3383 12.0036 11.3379C11.5266 11.3379 11.1074 11.2069 10.7646 10.9879V11.8151C10.7646 11.8666 10.749 11.917 10.7199 11.9595C10.6908 12.0021 10.6495 12.0348 10.6014 12.0534L7.50441 13.254C7.50441 13.254 7.27444 13.3486 7.01532 13.5695C7.09308 13.6383 7.17225 13.7055 7.25279 13.771C7.83507 14.2424 8.16493 14.9582 8.16493 15.7074V17.1955H15.835V15.7293Z" stroke="white" stroke-miterlimit="10" stroke-linecap="round" stroke-linejoin="round"/>
<path d="M9.77184 7.54542V7.40517C9.77184 7.28822 9.87168 7.19583 9.98751 7.20459C11.129 7.28658 12.2906 6.92386 13.169 6.35011C13.2087 6.32415 13.2563 6.31306 13.3033 6.31879C13.3504 6.32452 13.3939 6.34671 13.4262 6.38142C14.1771 7.18861 14.1726 7.15739 14.1726 7.26276V7.54279C14.4612 7.52409 14.7339 7.62937 14.9245 7.806V6.70786C14.9245 5.07727 13.6028 3.75549 11.9721 3.75549C10.3415 3.75549 9.01978 5.07727 9.01978 6.70786V7.82962C9.22049 7.64643 9.50535 7.53665 9.77184 7.54542Z" stroke="white" stroke-miterlimit="10" stroke-linecap="round" stroke-linejoin="round"/>
<path d="M14.1726 7.54279V9.16892C14.1726 9.18945 14.1716 9.2098 14.171 9.23024C14.7099 9.26605 15.1918 8.86902 15.1918 8.38653C15.1918 7.90316 14.7098 7.50801 14.1726 7.54279Z" stroke="white" stroke-miterlimit="10" stroke-linecap="round" stroke-linejoin="round"/>
<path d="M9.77181 9.16894V7.54543C9.29233 7.52963 8.75256 7.89746 8.75256 8.38651C8.75256 8.86843 9.23359 9.26611 9.77326 9.23016C9.77275 9.20977 9.77181 9.18943 9.77181 9.16894Z" stroke="white" stroke-miterlimit="10" stroke-linecap="round" stroke-linejoin="round"/>
<path d="M3.49188 11.1002L2.23029 12.1456" stroke="white" stroke-miterlimit="10" stroke-linecap="round" stroke-linejoin="round"/>
<path d="M3.49188 4.55911L2.23029 3.51366" stroke="white" stroke-miterlimit="10" stroke-linecap="round" stroke-linejoin="round"/>
<path d="M2.63779 7.82962H1.12982" stroke="white" stroke-miterlimit="10" stroke-linecap="round" stroke-linejoin="round"/>
<path d="M20.5081 11.1002L21.7696 12.1456" stroke="white" stroke-miterlimit="10" stroke-linecap="round" stroke-linejoin="round"/>
<path d="M20.5081 4.55911L21.7696 3.51366" stroke="white" stroke-miterlimit="10" stroke-linecap="round" stroke-linejoin="round"/>
<path d="M21.3621 7.82962H22.8701" stroke="white" stroke-miterlimit="10" stroke-linecap="round" stroke-linejoin="round"/>
<path d="M12.8203 13.4872C12.9476 13.4089 13.0635 13.3134 13.1646 13.2033C13.4445 12.8993 13.7229 12.5941 14 12.2876L13.3952 12.0534C13.3472 12.0348 13.3058 12.002 13.2767 11.9595C13.2475 11.917 13.2319 11.8666 13.2319 11.815V10.9552C12.871 11.2048 12.4424 11.3383 12.0036 11.3378C11.5266 11.3378 11.1074 11.2069 10.7646 10.9879V11.8151C10.7646 11.8667 10.7491 11.917 10.7199 11.9595C10.6908 12.002 10.6495 12.0348 10.6014 12.0534L9.95801 12.3028C10.2306 12.6042 10.5046 12.9043 10.7798 13.2033C10.8955 13.3294 11.0305 13.4364 11.1797 13.5202" stroke="white" stroke-miterlimit="10" stroke-linecap="round" stroke-linejoin="round"/>
<path d="M19.4965 7.00931C19.0651 3.34576 16.0108 0.484937 12.2625 0.356781C8.02936 0.212079 4.46626 3.63779 4.4508 7.8734C4.44217 10.2553 5.53684 12.3815 7.25279 13.771C7.83507 14.2424 8.16493 14.9582 8.16493 15.7074V17.1955H15.8351V15.7293C15.8351 14.9688 16.1684 14.2415 16.7585 13.7617C18.2793 12.5255 19.309 10.7092 19.5117 8.64993" stroke="white" stroke-miterlimit="10" stroke-linecap="round" stroke-linejoin="round"/>
</g>
</g>
</svg>
