<svg width="24" height="24" viewBox="0 0 24 24" fill="none" xmlns="http://www.w3.org/2000/svg">
<path d="M21.7272 2.2992H2.27277C1.86072 2.29984 1.46577 2.46397 1.17463 2.75556C0.883492 3.04714 0.71997 3.44235 0.719971 3.8544V20.1456C0.71997 20.5576 0.883492 20.9529 1.17463 21.2444C1.46577 21.536 1.86072 21.7002 2.27277 21.7008H21.7272C22.1392 21.7002 22.5342 21.536 22.8253 21.2444C23.1164 20.9529 23.28 20.5576 23.28 20.1456V3.8544C23.28 3.44235 23.1164 3.04714 22.8253 2.75556C22.5342 2.46397 22.1392 2.29984 21.7272 2.2992ZM22.5816 20.1456C22.5816 20.3724 22.4916 20.59 22.3315 20.7506C22.1713 20.9112 21.954 21.0018 21.7272 21.0024H2.27277C2.04595 21.0018 1.82863 20.9112 1.66847 20.7506C1.50831 20.59 1.41837 20.3724 1.41837 20.1456V5.628H22.5816V20.1456ZM22.5816 4.9296H1.41837V3.8544C1.41837 3.62758 1.50831 3.41001 1.66847 3.2494C1.82863 3.08879 2.04595 2.99824 2.27277 2.9976H21.7272C21.954 2.99824 22.1713 3.08879 22.3315 3.2494C22.4916 3.41001 22.5816 3.62758 22.5816 3.8544V4.9296Z" fill="white"/>
<path d="M8.41197 11.232L12.5328 12.5352C12.5668 12.5466 12.6025 12.5523 12.6384 12.552C12.7122 12.5522 12.7841 12.5291 12.8441 12.486C12.904 12.4429 12.9487 12.382 12.972 12.312C13.1147 11.856 13.1875 11.381 13.188 10.9032C13.1848 9.66618 12.6915 8.48083 11.8161 7.60679C10.9407 6.73275 9.75461 6.24127 8.51757 6.24C8.47187 6.23873 8.42636 6.24647 8.38365 6.26278C8.34094 6.2791 8.30186 6.30368 8.26865 6.3351C8.23544 6.36653 8.20875 6.40419 8.1901 6.44594C8.17145 6.48769 8.16122 6.5327 8.15997 6.5784V10.8984C8.16017 10.9738 8.18485 11.0471 8.23029 11.1073C8.27574 11.1674 8.3395 11.2112 8.41197 11.232ZM8.86557 6.9432C9.42857 6.99302 9.97448 7.16235 10.4668 7.43989C10.9592 7.71742 11.3867 8.09678 11.7208 8.55265C12.055 9.00852 12.288 9.53041 12.4044 10.0835C12.5209 10.6366 12.518 11.2081 12.396 11.76L8.86557 10.644V6.9432Z" fill="white"/>
<path d="M7.15917 16.5312C8.15231 16.5344 9.12038 16.2195 9.92153 15.6325C10.7227 15.0456 11.3148 14.2175 11.6112 13.2696C11.6253 13.2261 11.6307 13.1803 11.627 13.1347C11.6233 13.0891 11.6106 13.0447 11.5896 13.0041C11.5686 12.9635 11.5398 12.9274 11.5047 12.898C11.4697 12.8686 11.4292 12.8464 11.3856 12.8328L7.50717 11.6064V7.5408C7.50529 7.44976 7.46779 7.36309 7.40273 7.29937C7.33767 7.23566 7.25023 7.19998 7.15917 7.2C5.9205 7.2 4.73257 7.69206 3.8567 8.56793C2.98083 9.4438 2.48877 10.6317 2.48877 11.8704C2.48877 13.1091 2.98083 14.297 3.8567 15.1729C4.73257 16.0487 5.9205 16.5408 7.15917 16.5408V16.5312ZM6.80877 7.9032V11.8608C6.80855 11.9346 6.83163 12.0066 6.87473 12.0665C6.91782 12.1264 6.97873 12.1712 7.04877 12.1944L10.8216 13.3944C10.5497 14.0435 10.1102 14.6088 9.54806 15.0323C8.98595 15.4557 8.32141 15.7223 7.62246 15.8046C6.9235 15.8869 6.21523 15.782 5.57013 15.5006C4.92503 15.2193 4.36627 14.7716 3.95103 14.2034C3.53579 13.6351 3.27898 12.9668 3.20688 12.2667C3.13479 11.5666 3.25 10.86 3.54072 10.219C3.83144 9.57811 4.28724 9.02594 4.86146 8.61902C5.43569 8.21211 6.10771 7.96508 6.80877 7.9032ZM12.5712 20.1744H15.0432V15.6312H12.5712V20.1744ZM13.2696 16.3344H14.3448V19.476H13.2696V16.3344ZM15.8064 20.1744H18.276V14.4384H15.8064V20.1744ZM16.5048 15.1344H17.58V19.476H16.5048V15.1344ZM19.0392 20.1744H21.5112V12.6936H19.0392V20.1744ZM19.7376 13.392H20.8128V19.476H19.7376V13.392ZM15.5064 6.2304H21.1632V6.9288H15.5064V6.2304ZM15.5064 8.196H21.1632V8.8944H15.5064V8.196ZM2.83677 17.5104H8.49357V18.2088H2.83677V17.5104ZM2.83677 19.476H8.49357V20.1744H2.83677V19.476ZM2.83677 3.4464H4.52637V4.1448H2.83677V3.4464ZM15.5064 10.3248H21.1632V11.0232H15.5064V10.3248Z" fill="white"/>
</svg>
