<svg width="24" height="24" viewBox="0 0 24 24" fill="none" xmlns="http://www.w3.org/2000/svg">
<g clip-path="url(#clip0_135_64)">
<path fill-rule="evenodd" clip-rule="evenodd" d="M23.4375 22.875C23.5867 22.875 23.7298 22.9343 23.8352 23.0398C23.9407 23.1452 24 23.2883 24 23.4375C24 23.5867 23.9407 23.7298 23.8352 23.8352C23.7298 23.9407 23.5867 24 23.4375 24H0.5625C0.413316 24 0.270242 23.9407 0.164752 23.8352C0.0592632 23.7298 0 23.5867 0 23.4375L0 0.5625C0 0.413316 0.0592632 0.270242 0.164752 0.164752C0.270242 0.0592632 0.413316 0 0.5625 0C0.711684 0 0.854758 0.0592632 0.960248 0.164752C1.06574 0.270242 1.125 0.413316 1.125 0.5625V22.875H23.4375ZM22.3528 15.3008C22.1915 15.3008 22.0338 15.3487 21.8996 15.4383C21.7655 15.5279 21.661 15.6553 21.5992 15.8043C21.5375 15.9534 21.5213 16.1174 21.5528 16.2756C21.5843 16.4338 21.662 16.5791 21.776 16.6932C21.8901 16.8073 22.0354 16.885 22.1936 16.9164C22.3519 16.9479 22.5159 16.9317 22.6649 16.87C22.8139 16.8083 22.9413 16.7037 23.0309 16.5696C23.1206 16.4355 23.1684 16.2778 23.1684 16.1165C23.1684 15.9002 23.0825 15.6927 22.9295 15.5397C22.7765 15.3868 22.5691 15.3008 22.3528 15.3008ZM10.7653 12.8258C10.604 12.8258 10.4463 12.8737 10.3121 12.9633C10.178 13.0529 10.0735 13.1803 10.0117 13.3293C9.94999 13.4784 9.93384 13.6424 9.96531 13.8006C9.99678 13.9588 10.0745 14.1041 10.1885 14.2182C10.3026 14.3323 10.4479 14.4099 10.6061 14.4414C10.7644 14.4729 10.9284 14.4567 11.0774 14.395C11.2264 14.3333 11.3538 14.2287 11.4434 14.0946C11.5331 13.9605 11.5809 13.8028 11.5809 13.6415C11.5809 13.5344 11.5598 13.4283 11.5188 13.3293C11.4778 13.2304 11.4177 13.1405 11.342 13.0647C11.2663 12.989 11.1763 12.9289 11.0774 12.8879C10.9784 12.8469 10.8724 12.8258 10.7653 12.8258ZM16.845 6.36563C16.6837 6.36563 16.526 6.41346 16.3919 6.50308C16.2578 6.5927 16.1532 6.72009 16.0915 6.86912C16.0298 7.01816 16.0136 7.18215 16.0451 7.34037C16.0766 7.49859 16.1542 7.64392 16.2683 7.75798C16.3824 7.87205 16.5277 7.94973 16.6859 7.9812C16.8441 8.01267 17.0081 7.99652 17.1572 7.93479C17.3062 7.87306 17.4336 7.76852 17.5232 7.63439C17.6128 7.50026 17.6607 7.34257 17.6607 7.18125C17.6607 6.96493 17.5747 6.75748 17.4218 6.60452C17.2688 6.45156 17.0614 6.36563 16.845 6.36563ZM12.2279 17.9868C12.0665 17.9868 11.9089 18.0347 11.7747 18.1243C11.6406 18.2139 11.5361 18.3413 11.4743 18.4903C11.4126 18.6394 11.3964 18.8034 11.4279 18.9616C11.4594 19.1198 11.5371 19.2651 11.6511 19.3792C11.7652 19.4933 11.9105 19.5709 12.0687 19.6024C12.227 19.6339 12.3909 19.6177 12.54 19.556C12.689 19.4943 12.8164 19.3897 12.906 19.2556C12.9956 19.1215 13.0435 18.9638 13.0435 18.8025C13.0435 18.5861 12.9576 18.3787 12.8046 18.2257C12.6516 18.0728 12.4442 17.9868 12.2279 17.9868ZM22.0172 0.5625C21.7363 0.5625 21.4617 0.6458 21.2281 0.801866C20.9945 0.957932 20.8125 1.17975 20.705 1.43928C20.5975 1.69881 20.5694 1.98439 20.6242 2.2599C20.679 2.53542 20.8142 2.78849 21.0129 2.98713C21.2115 3.18576 21.4646 3.32103 21.7401 3.37583C22.0156 3.43064 22.3012 3.40251 22.5607 3.29501C22.8202 3.18751 23.0421 3.00547 23.1981 2.7719C23.3542 2.53833 23.4375 2.26372 23.4375 1.98281C23.4375 1.60612 23.2879 1.24486 23.0215 0.9785C22.7551 0.71214 22.3939 0.5625 22.0172 0.5625ZM16.8429 13.6494C16.562 13.6494 16.2874 13.7327 16.0538 13.8888C15.8202 14.0449 15.6382 14.2667 15.5307 14.5262C15.4232 14.7857 15.3951 15.0713 15.4499 15.3468C15.5047 15.6224 15.6399 15.8754 15.8386 16.0741C16.0372 16.2727 16.2903 16.408 16.5658 16.4628C16.8413 16.5176 17.1269 16.4894 17.3864 16.3819C17.6459 16.2744 17.8678 16.0924 18.0238 15.8588C18.1799 15.6253 18.2632 15.3507 18.2632 15.0698C18.2632 14.8832 18.2265 14.6985 18.1551 14.5262C18.0837 14.3539 17.9791 14.1973 17.8472 14.0654C17.7153 13.9335 17.5587 13.8289 17.3864 13.7576C17.2141 13.6862 17.0294 13.6494 16.8429 13.6494ZM10.6843 6.76819C10.4034 6.76819 10.1288 6.85149 9.89518 7.00755C9.66161 7.16362 9.47957 7.38544 9.37207 7.64497C9.26457 7.9045 9.23644 8.19008 9.29124 8.46559C9.34605 8.7411 9.48132 8.99418 9.67995 9.19281C9.87859 9.39145 10.1317 9.52672 10.4072 9.58152C10.6827 9.63632 10.9683 9.6082 11.2278 9.5007C11.4873 9.3932 11.7091 9.21115 11.8652 8.97758C12.0213 8.74401 12.1046 8.46941 12.1046 8.1885C12.1046 8.00198 12.0678 7.81729 11.9965 7.64497C11.9251 7.47265 11.8205 7.31608 11.6886 7.18419C11.5567 7.0523 11.4001 6.94768 11.2278 6.8763C11.0555 6.80492 10.8708 6.76819 10.6843 6.76819ZM5.81939 17.3713C5.53848 17.3713 5.26388 17.4546 5.03031 17.6107C4.79674 17.7667 4.61469 17.9886 4.50719 18.2481C4.39969 18.5076 4.37157 18.7932 4.42637 19.0687C4.48117 19.3442 4.61644 19.5973 4.81508 19.7959C5.01371 19.9946 5.26679 20.1298 5.5423 20.1846C5.81782 20.2395 6.10339 20.2113 6.36292 20.1038C6.62245 19.9963 6.84427 19.8143 7.00034 19.5807C7.1564 19.3471 7.2397 19.0725 7.2397 18.7916C7.23969 18.4149 7.09005 18.0537 6.82369 17.7873C6.55733 17.521 6.19607 17.3713 5.81939 17.3713Z" fill="white"/>
</g>
<defs>
<clipPath id="clip0_135_64">
<rect width="24" height="24" fill="white"/>
</clipPath>
</defs>
</svg>
