<svg width="24" height="24" viewBox="0 0 24 24" fill="none" xmlns="http://www.w3.org/2000/svg">
<g clip-path="url(#clip0_135_46)">
<path d="M3.99992 14.3233H7.29819C7.40988 14.3233 7.517 14.2789 7.59598 14.1999C7.67496 14.1209 7.71933 14.0138 7.71933 13.9021C7.71933 13.7904 7.67496 13.6833 7.59598 13.6043C7.517 13.5254 7.40988 13.481 7.29819 13.481H3.99992C2.25876 13.481 0.842023 12.0646 0.842023 10.3231C0.842023 8.70191 2.05658 7.35203 3.66667 7.1831C3.7318 7.17632 3.79445 7.15445 3.84963 7.11921C3.90482 7.08397 3.95102 7.03634 3.98457 6.98011C4.01812 6.92388 4.03808 6.8606 4.04288 6.7953C4.04767 6.72999 4.03716 6.66447 4.01219 6.60395C3.8648 6.24801 3.78913 5.86648 3.78954 5.48123C3.78954 3.8559 5.11178 2.53366 6.73686 2.53366C7.55983 2.53366 8.35275 2.88497 8.91143 3.49743C9.0013 3.59593 9.13119 3.64872 9.26515 3.63207C9.33055 3.62551 9.39349 3.60367 9.4489 3.56831C9.50431 3.53296 9.55064 3.48508 9.58415 3.42854C10.5455 1.81382 12.2353 0.849609 14.1051 0.849609C17.0074 0.849609 19.3684 3.21044 19.3684 6.11268C19.3684 6.29895 19.3564 6.49404 19.3321 6.70923C19.3179 6.83382 19.3762 6.95662 19.4629 7.04698C19.5497 7.13733 19.6869 7.18143 19.8133 7.17446C19.8751 7.17015 19.9368 7.16527 20 7.16527C21.7414 7.16527 23.1578 8.5817 23.1578 10.3232C23.1578 12.0646 21.7414 13.481 19.9999 13.481H15.158C15.0463 13.481 14.9392 13.5254 14.8602 13.6043C14.7813 13.6833 14.7369 13.7904 14.7369 13.9021C14.7369 14.0138 14.7813 14.1209 14.8602 14.1999C14.9392 14.2789 15.0463 14.3233 15.158 14.3233H20C22.2056 14.3233 24.0001 12.5288 24.0001 10.3231C24.0001 8.18659 22.3163 6.43625 20.2061 6.32856C20.209 6.25663 20.2104 6.18466 20.2105 6.11268C20.2105 2.74644 17.4716 0.00733948 14.1051 0.00733948C12.142 0.00733948 10.2867 0.974445 9.14661 2.56141C8.47124 2.00366 7.61762 1.69163 6.73686 1.69163C4.64722 1.69163 2.94727 3.39165 2.94727 5.48123C2.94727 5.8043 2.98797 6.1228 3.06871 6.43236C1.28721 6.85362 0 8.44441 0 10.3231C0 12.5288 1.79445 14.3233 3.99992 14.3233Z" fill="white"/>
<path d="M10.9473 20.2178C11.0589 20.2178 11.166 20.1735 11.245 20.0946C11.324 20.0156 11.3684 19.9086 11.3684 19.7969V8.84963H14.7966C14.985 9.57385 15.6387 10.1125 16.4209 10.1125C17.3497 10.1125 18.1053 9.35699 18.1053 8.42849C18.1053 7.5 17.3497 6.74414 16.4209 6.74414C15.6387 6.74414 14.985 7.28308 14.7966 8.0073H10.9473C10.8356 8.00735 10.7285 8.05175 10.6496 8.13074C10.5707 8.20972 10.5264 8.31683 10.5264 8.42849V19.3758H2.10524V18.0528C2.82946 17.8647 3.3684 17.2108 3.3684 16.4285C3.3684 15.4997 2.61285 14.7442 1.68435 14.7442C0.755551 14.7442 0 15.4997 0 16.4285C0 17.2108 0.538939 17.8647 1.26316 18.0529V19.7969C1.26316 19.8522 1.27405 19.907 1.29523 19.9581C1.3164 20.0091 1.34743 20.0556 1.38654 20.0946C1.42566 20.1337 1.47209 20.1647 1.52319 20.1859C1.57429 20.207 1.62906 20.2178 1.68435 20.2178H10.9473ZM16.4209 7.58641C16.8855 7.58641 17.2633 7.96394 17.2633 8.42849C17.2633 8.89305 16.8855 9.27052 16.4209 9.27052C15.9567 9.27052 15.5789 8.89299 15.5789 8.42849C15.5789 7.964 15.9567 7.58641 16.4209 7.58641ZM0.842023 16.4285C0.842023 15.964 1.2198 15.5864 1.68435 15.5864C2.1486 15.5864 2.52638 15.964 2.52638 16.4285C2.52638 16.8928 2.1486 17.2705 1.68435 17.2705C1.2198 17.2705 0.842023 16.8928 0.842023 16.4285Z" fill="white"/>
<path d="M6.31567 16.4285C6.26039 16.4284 6.20565 16.4393 6.15458 16.4605C6.10351 16.4816 6.0571 16.5126 6.01802 16.5517C5.97893 16.5908 5.94793 16.6372 5.92678 16.6883C5.90564 16.7394 5.89476 16.7941 5.89478 16.8494C5.89475 16.9047 5.90561 16.9595 5.92675 17.0105C5.94788 17.0616 5.97888 17.1081 6.01797 17.1472C6.05705 17.1863 6.10346 17.2173 6.15454 17.2385C6.20563 17.2596 6.26038 17.2705 6.31567 17.2705H9.26324C9.31854 17.2705 9.37329 17.2596 9.42437 17.2385C9.47545 17.2173 9.52186 17.1863 9.56094 17.1472C9.60003 17.1081 9.63103 17.0616 9.65216 17.0105C9.6733 16.9595 9.68416 16.9047 9.68413 16.8494V11.7969C9.68418 11.6984 9.64965 11.603 9.58656 11.5273L7.74196 9.31388C7.90294 9.05588 8.00002 8.75421 8.00002 8.42819C8.00002 7.49969 7.24447 6.74414 6.31567 6.74414C5.38717 6.74414 4.63162 7.49969 4.63162 8.42825C4.63162 9.35699 5.38717 10.1125 6.31567 10.1125C6.61228 10.1125 6.88693 10.029 7.12932 9.89383L8.84211 11.9492V16.4285H6.31567ZM5.47365 8.42856C5.47365 7.964 5.85142 7.58647 6.31567 7.58647C6.78022 7.58647 7.158 7.964 7.158 8.42856C7.158 8.59139 7.10927 8.742 7.02909 8.87115C6.97773 8.88723 6.92996 8.91307 6.88841 8.94727C6.82624 8.99883 6.79009 9.06649 6.76598 9.1376C6.63565 9.22068 6.48164 9.27058 6.31573 9.27058C5.85142 9.27058 5.47365 8.89305 5.47365 8.42856ZM22.7368 16.4285H13.8949V13.0004C14.6191 12.812 15.158 12.1583 15.158 11.3758C15.158 10.4473 14.4023 9.69171 13.4737 9.69171C12.5452 9.69171 11.7896 10.4473 11.7896 11.3758C11.7896 12.1583 12.3284 12.812 13.0526 13.0004V16.8495C13.0526 16.9612 13.097 17.0683 13.1759 17.1473C13.2549 17.2262 13.362 17.2706 13.4737 17.2706H22.737C22.7923 17.2706 22.847 17.2597 22.8981 17.2385C22.9492 17.2174 22.9956 17.1863 23.0347 17.1472C23.0738 17.1081 23.1048 17.0617 23.1259 17.0106C23.147 16.9595 23.1579 16.9048 23.1579 16.8495C23.1579 16.7942 23.147 16.7395 23.1258 16.6884C23.1047 16.6373 23.0737 16.5909 23.0346 16.5518C22.9955 16.5127 22.9491 16.4817 22.898 16.4606C22.847 16.4394 22.7922 16.4286 22.737 16.4286L22.7368 16.4285ZM12.6316 11.3758C12.6316 10.9116 13.0092 10.5338 13.4737 10.5338C13.9382 10.5338 14.3157 10.9116 14.3157 11.3758C14.3157 11.8403 13.9382 12.2181 13.4737 12.2181C13.0091 12.2181 12.6316 11.8403 12.6316 11.3758ZM22.3158 21.481H19.1916L17.6287 18.746C17.5919 18.6815 17.5387 18.6279 17.4746 18.5907C17.4104 18.5534 17.3375 18.5338 17.2633 18.5338H13.4737C13.4178 18.5328 13.3622 18.543 13.3103 18.5637C13.2584 18.5844 13.2111 18.6153 13.1713 18.6545C13.1314 18.6937 13.0997 18.7404 13.0781 18.792C13.0565 18.8435 13.0454 18.8989 13.0454 18.9548C13.0454 19.0107 13.0565 19.066 13.0781 19.1176C13.0997 19.1691 13.1314 19.2159 13.1713 19.255C13.2111 19.2942 13.2584 19.3251 13.3103 19.3458C13.3622 19.3666 13.4178 19.3767 13.4737 19.3758H17.0189L18.5818 22.1111C18.6186 22.1755 18.6718 22.2291 18.736 22.2664C18.8002 22.3036 18.8731 22.3233 18.9473 22.3233H22.3158C22.5482 22.3233 22.7369 22.1346 22.7369 21.9022C22.7369 21.6697 22.5483 21.481 22.3158 21.481ZM16.8421 21.481H15.5191C15.3307 20.7568 14.6771 20.2179 13.8948 20.2179C13.1123 20.2179 12.4586 20.7568 12.2702 21.481H2.10524C1.87272 21.481 1.68436 21.6696 1.68436 21.9022C1.68436 22.1347 1.87272 22.3233 2.10524 22.3233H12.2701C12.4586 23.0475 13.1122 23.5863 13.8947 23.5863C14.6771 23.5863 15.3307 23.0475 15.5191 22.3233H16.8421C17.0745 22.3233 17.2632 22.1346 17.2632 21.9022C17.2632 21.6697 17.0745 21.481 16.842 21.481H16.8421ZM13.8948 22.7442C13.4303 22.7442 13.0525 22.3667 13.0525 21.9022C13.0525 21.4376 13.4303 21.0601 13.8948 21.0601C14.3591 21.0601 14.7369 21.4376 14.7369 21.9022C14.7369 22.3667 14.3591 22.7442 13.8948 22.7442Z" fill="white"/>
</g>
<defs>
<clipPath id="clip0_135_46">
<rect width="24" height="24" fill="white"/>
</clipPath>
</defs>
</svg>
